<svg width="50" height="50" viewBox="0 0 50 50" fill="none" xmlns="http://www.w3.org/2000/svg">
<path d="M13.2812 25C10.1732 25 7.19253 23.7654 4.99484 21.5677C2.79715 19.37 1.5625 16.3893 1.5625 13.2812C1.5625 10.1732 2.79715 7.19253 4.99484 4.99484C7.19253 2.79715 10.1732 1.5625 13.2812 1.5625C16.3893 1.5625 19.37 2.79715 21.5677 4.99484C23.7654 7.19253 25 10.1732 25 13.2812C25 16.3893 23.7654 19.37 21.5677 21.5677C19.37 23.7654 16.3893 25 13.2812 25ZM14.8438 5.85938C14.8438 5.54857 14.7203 5.2505 14.5005 5.03073C14.2807 4.81096 13.9827 4.6875 13.6719 4.6875C13.3611 4.6875 13.063 4.81096 12.8432 5.03073C12.6235 5.2505 12.5 5.54857 12.5 5.85938V11.7188H6.64062C6.32982 11.7188 6.03175 11.8422 5.81198 12.062C5.59222 12.2818 5.46875 12.5798 5.46875 12.8906C5.46875 13.2014 5.59222 13.4995 5.81198 13.7193C6.03175 13.939 6.32982 14.0625 6.64062 14.0625H12.5V19.9219C12.5 20.2327 12.6235 20.5307 12.8432 20.7505C13.063 20.9703 13.3611 21.0938 13.6719 21.0938C13.9827 21.0938 14.2807 20.9703 14.5005 20.7505C14.7203 20.5307 14.8438 20.2327 14.8438 19.9219V14.0625H20.7031C21.0139 14.0625 21.312 13.939 21.5318 13.7193C21.7515 13.4995 21.875 13.2014 21.875 12.8906C21.875 12.5798 21.7515 12.2818 21.5318 12.062C21.312 11.8422 21.0139 11.7188 20.7031 11.7188H14.8438V5.85938ZM27.3438 13.2812C27.3438 15.9095 26.6072 18.4852 25.2177 20.7161C23.8282 22.947 21.8412 24.7439 19.4823 25.9028C17.1234 27.0618 14.4868 27.5365 11.8718 27.2731C9.25677 27.0097 6.76789 26.0187 4.6875 24.4125V38.2812C4.6875 39.6078 5.05469 40.8484 5.69375 41.9062L22.2375 25.3625C22.6002 24.9997 23.0309 24.7118 23.5049 24.5155C23.9789 24.3191 24.4869 24.218 25 24.218C25.5131 24.218 26.0211 24.3191 26.4951 24.5155C26.9691 24.7118 27.3998 24.9997 27.7625 25.3625L44.3063 41.9078C44.965 40.8129 45.3129 39.5591 45.3125 38.2812V11.7188C45.3125 9.85395 44.5717 8.06552 43.2531 6.74691C41.9345 5.42829 40.1461 4.6875 38.2812 4.6875H24.4141C26.3182 7.14709 27.349 10.1707 27.3438 13.2812ZM38.2812 17.1875C38.2812 18.4307 37.7874 19.623 36.9083 20.5021C36.0292 21.3811 34.837 21.875 33.5938 21.875C32.3505 21.875 31.1583 21.3811 30.2792 20.5021C29.4001 19.623 28.9062 18.4307 28.9062 17.1875C28.9062 15.9443 29.4001 14.752 30.2792 13.8729C31.1583 12.9939 32.3505 12.5 33.5938 12.5C34.837 12.5 36.0292 12.9939 36.9083 13.8729C37.7874 14.752 38.2812 15.9443 38.2812 17.1875ZM42.1406 44.1594L25.5531 27.5719C25.4066 27.4254 25.2079 27.3431 25.0008 27.3431C24.7936 27.3431 24.5949 27.4254 24.4484 27.5719L7.85938 44.1594C9.00585 44.9119 10.3474 45.3127 11.7188 45.3125H38.2812C39.6526 45.3127 40.9941 44.9119 42.1406 44.1594Z" fill="#1E80C9"/>
</svg>
