<svg width="13" height="16" viewBox="0 0 13 16" fill="none" xmlns="http://www.w3.org/2000/svg">
<path d="M9.27102 13L8.8812 14.605C8.69441 15.376 8.00309 15.935 7.18589 15.995L7.03971 16H5.2632C4.4328 16 3.70494 15.484 3.46029 14.738L3.42171 14.605L3.03291 13H9.27102ZM6.15145 0C9.51567 0 12.2424 2.597 12.2424 5.8C12.2424 7.477 11.4861 9.016 10.005 10.394C9.94082 10.4537 9.8906 10.5263 9.85777 10.607L9.83138 10.688L9.51262 12H6.66005V7.497C6.66005 7.36439 6.60657 7.23722 6.51138 7.14345C6.41619 7.04968 6.28709 6.997 6.15247 6.997C6.01785 6.997 5.88875 7.04968 5.79356 7.14345C5.69837 7.23722 5.6449 7.36439 5.6449 7.497V12H2.78927L2.47153 10.689C2.44413 10.5763 2.38419 10.4739 2.29896 10.394C0.887895 9.082 0.133638 7.624 0.0656227 6.039L0.0605469 5.8L0.0635921 5.609C0.170183 2.494 2.85526 0 6.15145 0ZM5.64388 4.502V5.504C5.64388 5.63661 5.69736 5.76379 5.79254 5.85755C5.88773 5.95132 6.01684 6.004 6.15145 6.004C6.28607 6.004 6.41518 5.95132 6.51037 5.85755C6.60555 5.76379 6.65903 5.63661 6.65903 5.504V4.502C6.65903 4.36939 6.60555 4.24221 6.51037 4.14845C6.41518 4.05468 6.28607 4.002 6.15145 4.002C6.01684 4.002 5.88773 4.05468 5.79254 4.14845C5.69736 4.24221 5.64388 4.36939 5.64388 4.502ZM9.04464 5.443C8.94945 5.34926 8.82037 5.29661 8.68578 5.29661C8.55119 5.29661 8.42211 5.34926 8.32692 5.443L7.6082 6.152C7.51574 6.2463 7.46458 6.3726 7.46573 6.5037C7.46689 6.6348 7.52027 6.76021 7.61438 6.85291C7.70849 6.94561 7.8358 6.9982 7.96888 6.99934C8.10196 7.00048 8.23018 6.95008 8.32591 6.859L9.04565 6.15C9.14081 6.05624 9.19426 5.92908 9.19426 5.7965C9.19426 5.66392 9.13979 5.53676 9.04464 5.443ZM3.97193 5.443C3.9251 5.39524 3.86909 5.35715 3.80717 5.33095C3.74524 5.30474 3.67864 5.29095 3.61124 5.29037C3.54385 5.2898 3.47701 5.30245 3.41463 5.32759C3.35225 5.35273 3.29558 5.38986 3.24792 5.4368C3.20026 5.48375 3.16258 5.53958 3.13705 5.60102C3.11153 5.66247 3.09869 5.72831 3.09928 5.7947C3.09986 5.86109 3.11386 5.9267 3.14046 5.9877C3.16707 6.0487 3.20573 6.10388 3.25421 6.15L3.97294 6.859C4.01976 6.90676 4.07577 6.94485 4.1377 6.97105C4.19962 6.99725 4.26623 7.01105 4.33362 7.01163C4.40102 7.0122 4.46786 6.99955 4.53023 6.97441C4.59261 6.94927 4.64929 6.91214 4.69694 6.8652C4.7446 6.81825 4.78229 6.76243 4.80781 6.70098C4.83333 6.63953 4.84618 6.57369 4.84559 6.5073C4.845 6.44091 4.831 6.3753 4.8044 6.3143C4.7778 6.2533 4.73913 6.19812 4.69065 6.152L3.97193 5.443Z" fill="#FFAE00"/>
</svg>
