<svg width="41" height="41" viewBox="0 0 41 41" fill="none" xmlns="http://www.w3.org/2000/svg">
<path d="M20.4285 0.285767C21.0915 0.285767 21.7274 0.549159 22.1962 1.018C22.6651 1.48684 22.9285 2.12273 22.9285 2.78577V17.7858H37.9285C38.5915 17.7858 39.2274 18.0492 39.6962 18.518C40.1651 18.9868 40.4285 19.6227 40.4285 20.2858C40.4285 20.9488 40.1651 21.5847 39.6962 22.0535C39.2274 22.5224 38.5915 22.7858 37.9285 22.7858H22.9285V37.7858C22.9285 38.4488 22.6651 39.0847 22.1962 39.5535C21.7274 40.0224 21.0915 40.2858 20.4285 40.2858C19.7654 40.2858 19.1295 40.0224 18.6607 39.5535C18.1919 39.0847 17.9285 38.4488 17.9285 37.7858V22.7858H2.92847C2.26543 22.7858 1.62954 22.5224 1.1607 22.0535C0.691859 21.5847 0.428467 20.9488 0.428467 20.2858C0.428467 19.6227 0.691859 18.9868 1.1607 18.518C1.62954 18.0492 2.26543 17.7858 2.92847 17.7858H17.9285V2.78577C17.9285 2.12273 18.1919 1.48684 18.6607 1.018C19.1295 0.549159 19.7654 0.285767 20.4285 0.285767Z" fill="white"/>
</svg>
