<svg width="125" height="125" viewBox="0 0 125 125" fill="none" xmlns="http://www.w3.org/2000/svg">
<path d="M56.25 12.5C49.6196 12.5 43.2607 15.1339 38.5723 19.8223C33.8839 24.5107 31.25 30.8696 31.25 37.5C31.25 44.1304 33.8839 50.4893 38.5723 55.1777C43.2607 59.8661 49.6196 62.5 56.25 62.5C62.8804 62.5 69.2393 59.8661 73.9277 55.1777C78.6161 50.4893 81.25 44.1304 81.25 37.5C81.25 30.8696 78.6161 24.5107 73.9277 19.8223C69.2393 15.1339 62.8804 12.5 56.25 12.5ZM25.0562 68.75C23.41 68.7426 21.7785 69.0604 20.2554 69.6853C18.7324 70.3102 17.3477 71.2297 16.181 72.3912C15.0143 73.5527 14.0886 74.9332 13.4569 76.4534C12.8252 77.9737 12.5 79.6037 12.5 81.25C12.5 91.8187 17.7063 99.7875 25.8438 104.981C33.8563 110.088 44.6563 112.5 56.25 112.5C58.8208 112.5 61.3417 112.381 63.8125 112.144C58.9071 106.046 56.2382 98.4513 56.25 90.625C56.25 82.3125 59.2 74.6875 64.1063 68.75H25.0562ZM90.625 118.75C98.0842 118.75 105.238 115.787 110.512 110.512C115.787 105.238 118.75 98.0842 118.75 90.625C118.75 83.1658 115.787 76.0121 110.512 70.7376C105.238 65.4632 98.0842 62.5 90.625 62.5C83.1658 62.5 76.0121 65.4632 70.7376 70.7376C65.4632 76.0121 62.5 83.1658 62.5 90.625C62.5 98.0842 65.4632 105.238 70.7376 110.512C76.0121 115.787 83.1658 118.75 90.625 118.75ZM90.625 75C91.4538 75 92.2487 75.3292 92.8347 75.9153C93.4208 76.5013 93.75 77.2962 93.75 78.125V87.5H103.125C103.954 87.5 104.749 87.8292 105.335 88.4153C105.921 89.0013 106.25 89.7962 106.25 90.625C106.25 91.4538 105.921 92.2487 105.335 92.8347C104.749 93.4208 103.954 93.75 103.125 93.75H93.75V103.125C93.75 103.954 93.4208 104.749 92.8347 105.335C92.2487 105.921 91.4538 106.25 90.625 106.25C89.7962 106.25 89.0013 105.921 88.4153 105.335C87.8292 104.749 87.5 103.954 87.5 103.125V93.75H78.125C77.2962 93.75 76.5013 93.4208 75.9153 92.8347C75.3292 92.2487 75 91.4538 75 90.625C75 89.7962 75.3292 89.0013 75.9153 88.4153C76.5013 87.8292 77.2962 87.5 78.125 87.5H87.5V78.125C87.5 77.2962 87.8292 76.5013 88.4153 75.9153C89.0013 75.3292 89.7962 75 90.625 75Z" fill="#10266F"/>
</svg>
