<svg width="20" height="20" viewBox="0 0 20 20" fill="none" xmlns="http://www.w3.org/2000/svg">
<path d="M12.9375 14.0419C11.6627 15.0687 10.0744 15.6275 8.4375 15.625C4.46813 15.625 1.25 12.4069 1.25 8.4375C1.25 4.46813 4.46813 1.25 8.4375 1.25C12.4069 1.25 15.625 4.46813 15.625 8.4375C15.625 10.1406 15.0325 11.7056 14.0425 12.9375L17.8969 16.7912C18.0434 16.9378 18.1257 17.1365 18.1257 17.3438C18.1257 17.551 18.0434 17.7497 17.8969 17.8962C17.7503 18.0428 17.5516 18.1251 17.3444 18.1251C17.1371 18.1251 16.9384 18.0428 16.7919 17.8962L12.9375 14.0419ZM14.0625 8.4375C14.0625 6.94566 13.4699 5.51492 12.415 4.46002C11.3601 3.40513 9.92934 2.8125 8.4375 2.8125C6.94566 2.8125 5.51492 3.40513 4.46002 4.46002C3.40513 5.51492 2.8125 6.94566 2.8125 8.4375C2.8125 9.92934 3.40513 11.3601 4.46002 12.415C5.51492 13.4699 6.94566 14.0625 8.4375 14.0625C9.92934 14.0625 11.3601 13.4699 12.415 12.415C13.4699 11.3601 14.0625 9.92934 14.0625 8.4375Z" fill="#AEAEAE"/>
</svg>
