<svg width="17" height="17" viewBox="0 0 17 17" fill="none" xmlns="http://www.w3.org/2000/svg">
<path d="M7.79083 0.867487C7.87088 0.687462 7.9948 0.535865 8.14857 0.429859C8.30234 0.323853 8.47982 0.26767 8.66092 0.26767C8.84201 0.26767 9.01949 0.323853 9.17326 0.429859C9.32703 0.535865 9.45096 0.687462 9.53101 0.867487L11.4031 5.07074L15.5906 5.74584C15.7698 5.77467 15.9381 5.85849 16.0765 5.98782C16.2149 6.11715 16.3179 6.28683 16.3738 6.47766C16.4297 6.66848 16.4363 6.87284 16.3929 7.06761C16.3494 7.26239 16.2577 7.4398 16.128 7.57979L13.0977 10.8521L13.8136 15.4746C13.8441 15.6723 13.8242 15.8755 13.756 16.0613C13.6877 16.2471 13.574 16.408 13.4276 16.5259C13.2811 16.6438 13.1079 16.7139 12.9274 16.7283C12.7468 16.7428 12.5663 16.701 12.4061 16.6076L8.66189 14.4254L4.91575 16.6076C4.7555 16.7008 4.57495 16.7424 4.39449 16.7278C4.21403 16.7131 4.04085 16.6429 3.89454 16.5249C3.74823 16.4069 3.63461 16.2459 3.56652 16.0601C3.49843 15.8743 3.47859 15.6711 3.50925 15.4735L4.22414 10.8521L1.19386 7.57979C1.06416 7.4398 0.972409 7.26239 0.928971 7.06761C0.885532 6.87284 0.892145 6.66848 0.94806 6.47766C1.00398 6.28683 1.10696 6.11715 1.24537 5.98782C1.38377 5.85849 1.55208 5.77467 1.73124 5.74584L5.91873 5.07181L7.79083 0.867487ZM8.66092 1.34264L6.78882 5.54696C6.7192 5.70326 6.61634 5.83845 6.4891 5.94089C6.36186 6.04333 6.21405 6.10994 6.05841 6.13499L1.86995 6.81009L4.90023 10.0824C5.01272 10.2041 5.09684 10.3543 5.14533 10.52C5.19383 10.6857 5.20525 10.8621 5.17862 11.0338L4.46373 15.6563L8.20793 13.474C8.34717 13.3928 8.50213 13.3504 8.65946 13.3504C8.81679 13.3504 8.97175 13.3928 9.111 13.474L12.8562 15.6563L12.1413 11.0338C12.1146 10.8621 12.1261 10.6857 12.1746 10.52C12.2231 10.3543 12.3072 10.2041 12.4197 10.0824L15.4499 6.81009L11.2625 6.13499C11.107 6.10978 10.9594 6.04309 10.8323 5.94066C10.7052 5.83823 10.6025 5.70312 10.533 5.54696L8.66092 1.34264Z" fill="#1E80C9"/>
</svg>
